<?xml version="1.0" encoding="utf-8"?>
<!-- Generator: Adobe Illustrator 26.0.2, SVG Export Plug-In . SVG Version: 6.00 Build 0)  -->
<svg version="1.1" id="Layer_1" xmlns="http://www.w3.org/2000/svg" xmlns:xlink="http://www.w3.org/1999/xlink" x="0px" y="0px"
	 viewBox="0 0 1280 1280" style="enable-background:new 0 0 1280 1280;" xml:space="preserve">
<style type="text/css">
	.st0{fill:url(#SVGID_1_);}
	.st1{fill:url(#SVGID_00000101815405080331185900000017940613131092084664_);}
	.st2{fill:url(#SVGID_00000143579886302610372560000002942531320087387553_);}
	.st3{fill:url(#SVGID_00000111184242401298206230000015361182440875974815_);}
	.st4{fill-rule:evenodd;clip-rule:evenodd;fill:url(#SVGID_00000044870648505475100520000018310062686954931619_);}
	.st5{fill-rule:evenodd;clip-rule:evenodd;fill:url(#SVGID_00000049182691022003037600000002530269012779046835_);}
	.st6{fill-rule:evenodd;clip-rule:evenodd;fill:url(#SVGID_00000163762829791541157580000017279145866573260204_);}
	.st7{fill-rule:evenodd;clip-rule:evenodd;fill:url(#SVGID_00000131366686402239233590000003248671940958988936_);}
	.st8{fill-rule:evenodd;clip-rule:evenodd;fill:url(#SVGID_00000153700375385918054660000007263276335425218239_);}
	.st9{fill-rule:evenodd;clip-rule:evenodd;fill:url(#SVGID_00000149340514443592475500000018132217708606919587_);}
	.st10{fill:url(#SVGID_00000083072404212503090060000003004351362993462683_);}
	.st11{fill-rule:evenodd;clip-rule:evenodd;fill:#FFFFFF;}
	.st12{fill:url(#SVGID_00000163061353604542794900000014976755499193718205_);}
	.st13{fill-rule:evenodd;clip-rule:evenodd;fill:url(#SVGID_00000063608954869338943980000015755874770352879272_);}
	.st14{fill-rule:evenodd;clip-rule:evenodd;fill:url(#SVGID_00000021841896307972708860000002615267384872702610_);}
	.st15{fill:#FFFFFF;}
	.st16{fill-rule:evenodd;clip-rule:evenodd;fill:url(#SVGID_00000071540750409602820910000002887408472239513012_);}
	.st17{fill-rule:evenodd;clip-rule:evenodd;fill:url(#SVGID_00000029726943383729226570000006752193472795329687_);}
</style>
<g>
	<linearGradient id="SVGID_1_" gradientUnits="userSpaceOnUse" x1="0" y1="640" x2="1280" y2="640">
		<stop  offset="0" style="stop-color:#FF6633"/>
		<stop  offset="0.3304" style="stop-color:#FD5D32"/>
		<stop  offset="0.8782" style="stop-color:#F7432E"/>
		<stop  offset="0.9944" style="stop-color:#F53D2D"/>
	</linearGradient>
	<rect y="0" style="fill-rule:evenodd;clip-rule:evenodd;fill:url(#SVGID_1_);" width="1280" height="1280"/>
</g>
<g>
	<path class="st11" d="M285.65,713.42c-1.96,16.16-11.75,29.1-26.92,35.58c-8.45,3.61-19.79,5.56-28.76,4.95
		c-14-0.54-27.16-3.94-39.29-10.17c-4.33-2.23-10.79-6.67-15.75-10.83c-1.26-1.05-1.41-1.73-0.57-2.9c0.45-0.68,1.28-1.9,3.1-4.58
		c2.65-3.89,2.98-4.37,3.28-4.83c0.85-1.3,2.23-1.42,3.59-0.35c0.14,0.11,0.14,0.11,0.25,0.2c0.22,0.17,0.22,0.17,0.75,0.58
		c0.53,0.42,0.85,0.66,0.98,0.76c13.08,10.24,28.31,16.15,43.69,16.74c21.39-0.29,36.78-9.91,39.53-24.68
		c3.03-16.26-9.73-30.3-34.7-38.13c-7.81-2.45-27.54-10.35-31.18-12.48c-17.09-10.03-25.08-23.16-23.94-39.38
		c1.74-22.49,22.61-39.26,48.99-39.37c11.8-0.02,23.57,2.43,34.87,7.19c4,1.69,11.15,5.58,13.62,7.42c1.42,1.04,1.7,2.26,0.89,3.57
		c-0.46,0.76-1.21,1.97-2.79,4.48l-0.02,0.03c-2.09,3.31-2.15,3.42-2.63,4.19c-0.83,1.26-1.8,1.38-3.29,0.43
		c-12.1-8.13-25.51-12.22-40.27-12.51c-18.37,0.36-32.13,11.29-33.04,26.18c-0.24,13.45,9.85,23.27,31.63,30.75
		C271.91,670.49,288.84,687.15,285.65,713.42 M231.03,481.25c28.79,0,52.27,27.33,53.36,61.53H177.67
		C178.77,508.58,202.24,481.25,231.03,481.25 M380.05,549.22c0-3.55-2.86-6.43-6.39-6.43h-69.18c-1.7-45.16-33.94-81.18-73.46-81.18
		c-39.52,0-71.76,36.01-73.45,81.18l-69.28,0c-3.47,0.06-6.27,2.92-6.27,6.43c0,0.17,0.01,0.33,0.02,0.5H82l9.88,217.69
		c0,0.61,0.02,1.22,0.07,1.83c0.01,0.14,0.02,0.28,0.03,0.41l0.02,0.46l0.02,0.02c1.5,15.15,12.49,27.35,27.44,27.91l0.03,0.03
		h219.75c0.1,0,0.21,0,0.31,0s0.21,0,0.31,0h0.47l0.01-0.01c15.21-0.42,27.53-12.79,28.83-28.12l0.01-0.01l0.01-0.21
		c0.01-0.16,0.02-0.32,0.03-0.48c0.02-0.39,0.04-0.77,0.05-1.15l10.78-218.55h-0.01C380.05,549.44,380.05,549.33,380.05,549.22
		 M1112.63,691.09c4.23-13.81,17.04-23.02,31.97-23.02c14.26,0,27.84,9.68,32.53,22.99l0.32,0.91h-65.1L1112.63,691.09
		L1112.63,691.09z M1191.94,711.1c0.09,0,0.09,0,0.22,0.01c0.13,0,0.13,0,0.26-0.01c3.12-0.14,5.58-2.8,5.58-6.03
		c0-0.16-0.01-0.29-0.02-0.51c0-0.04,0-0.12,0-0.37c0-30.5-23.91-55.22-53.4-55.22c-29.49,0-53.4,24.72-53.4,55.22
		c0,2.27,0.13,4.54,0.4,6.79l0.02,0.12l0.08,0.6c1.47,10.97,6.15,21.05,13.55,29.2c0,0,0,0,0.04,0.05
		c8.2,9.02,19.33,15.17,31.68,17.47l0.16,0.03v-0.02l0.8,0.13c0.41,0.07,0.85,0.14,1.43,0.23c16.25,1.95,30.67-0.39,42.87-6.54
		c3.01-1.51,5.71-3.19,8.05-4.95c0.75-0.57,1.43-1.12,2.02-1.63c0.3-0.27,0.54-0.49,0.67-0.62c2.75-2.84,2.93-3.84,1.26-6.43
		c-1.83-2.91-3.44-5.39-4.83-7.45c-0.48-0.72-0.9-1.33-1.26-1.84c-0.2-0.28-0.2-0.28-0.32-0.46c-0.05-0.07-0.05-0.07-0.08-0.11
		l-0.02-0.02c-1.5-1.87-2.53-2.04-4.21-0.57c-0.18,0.16-0.77,0.62-0.88,0.73c-11.74,10.43-27.78,13.78-43.79,10.43
		c-2.98-0.8-5.77-1.82-8.34-3.05c-10.03-5.03-17.14-13.99-19.19-24.37l-0.16-0.82H1191.94L1191.94,711.1z M985.56,691.09
		c4.23-13.81,17.04-23.02,31.97-23.02c14.26,0,27.84,9.68,32.53,22.99l0.32,0.91h-65.1L985.56,691.09z M1064.87,711.1
		c0.09,0,0.09,0,0.22,0.01c0.13,0,0.13,0,0.26-0.01c3.12-0.14,5.58-2.8,5.58-6.03c0-0.16-0.01-0.29-0.02-0.51c0-0.04,0-0.12,0-0.37
		c0-30.5-23.91-55.22-53.4-55.22c-29.49,0-53.4,24.72-53.4,55.22c0,2.27,0.13,4.54,0.4,6.79l0.02,0.12l0.08,0.6
		c1.47,10.97,6.15,21.05,13.55,29.2c0,0,0,0,0.04,0.05c8.2,9.02,19.33,15.17,31.68,17.47l0.16,0.03v-0.02l0.8,0.13
		c0.41,0.07,0.85,0.14,1.43,0.23c16.25,1.95,30.67-0.39,42.87-6.54c3.01-1.51,5.71-3.19,8.05-4.95c0.75-0.57,1.43-1.12,2.02-1.63
		c0.3-0.27,0.54-0.49,0.67-0.62c2.75-2.84,2.93-3.84,1.26-6.43c-1.83-2.91-3.44-5.39-4.83-7.45c-0.48-0.72-0.9-1.33-1.26-1.84
		c-0.2-0.28-0.2-0.28-0.32-0.46c-0.05-0.07-0.05-0.07-0.08-0.11l-0.01-0.02c-1.51-1.87-2.54-2.04-4.21-0.57
		c-0.18,0.16-0.77,0.62-0.88,0.73c-11.74,10.43-27.78,13.78-43.79,10.43c-2.98-0.8-5.77-1.82-8.34-3.05
		c-10.03-5.03-17.14-13.99-19.19-24.37l-0.16-0.82H1064.87L1064.87,711.1z M888.58,741.51c-19.86,0-36.1-15.75-36.6-35.48v-1.86
		c0.49-19.7,16.74-35.45,36.6-35.45c20.22,0,36.61,16.29,36.61,36.39C925.19,725.22,908.8,741.51,888.58,741.51 M888.59,649.42
		c-13.03,0-25.47,4.44-35.48,12.57l-1.14,0.92v-10.18c0-2.72-0.58-3.31-3.33-3.31h-12.78c-2.78,0-3.33,0.55-3.33,3.31v162.35
		c0,2.67,0.62,3.31,3.33,3.31h12.78c2.72,0,3.33-0.63,3.33-3.31v-67.7l1.14,0.92c10,8.14,22.45,12.58,35.48,12.58
		c30.96,0,56.06-24.95,56.06-55.73C944.66,674.37,919.56,649.42,888.59,649.42 M756.93,740.27c-20.26,0-36.69-16.15-36.69-36.08
		s16.43-36.08,36.69-36.08c20.26,0,36.68,16.15,36.68,36.08C793.61,724.11,777.19,740.27,756.93,740.27 M756.94,648.97
		c-31.02,0-56.17,24.74-56.17,55.25c0,30.51,25.15,55.25,56.17,55.25c31.02,0,56.17-24.74,56.17-55.25
		C813.11,673.7,787.97,648.97,756.94,648.97 M631.73,650.19c-11.33,0-22.28,3.64-31.38,10.37l-1.11,0.82v-75.4
		c0-2.5-0.82-3.31-3.32-3.31h-13.38c-2.7,0-3.32,0.65-3.32,3.31v172c0,2.6,0.67,3.32,3.32,3.32h13.38c2.48,0,3.32-0.86,3.32-3.32
		v-56.18c0.14-17.69,14.64-31.96,32.48-31.96c17.88,0,32.4,14.34,32.48,32.09v56.05c0,2.85,0.47,3.32,3.32,3.32h13.35
		c2.83,0,3.32-0.48,3.32-3.32v-56.22C684.09,673.41,660.44,650.19,631.73,650.19 M445.26,730.1l-0.03,0.05
		c-1.91,2.89-2.71,4.11-3.15,4.8c-1.5,2.24-1.32,3.24,0.98,5.18c5.36,4.32,12.25,8.86,16.9,11.13c12.94,6.33,26.91,9.67,41.71,9.97
		c9.56,0.48,21.58-1.79,30.52-5.78c16.19-7.22,26.51-21.3,28.32-38.65c2.93-28.1-15.36-45.67-62.45-59.82l-0.01,0
		c-21.94-7.08-32.25-16.48-32.25-29.62c0.65-14.52,14.11-25.36,32.27-26.04c14.63,0.04,27.56,3.92,40.27,12.1
		c2.68,1.63,3.92,1.33,5.72-1.01c0.21-0.35,0.78-1.18,3.19-4.64l0.01-0.01c2.25-3.23,2.99-4.31,3.17-4.63
		c1.52-2.86,1.3-3.96-1.44-5.9c-2.7-1.93-10.3-5.89-14.65-7.62c-12.09-4.82-24.59-7.17-37.03-6.92
		c-28.31,0.61-50.39,19.03-51.84,43.18c-0.92,17.45,7.93,31.48,26.43,41.85c5.19,2.74,24.15,9.91,33,12.5
		c25.17,7.37,38.29,20.93,35.58,36.92c-2.46,14.53-17.69,24.2-39.06,24.86c-15.5-0.32-31.11-6-44.67-16.19
		c-0.07-0.05-0.41-0.3-1.05-0.78c-0.89-0.66-0.89-0.66-1.02-0.76c-2.76-1.91-4.39-1.75-6.08,0.76
		C448.4,725.34,446.3,728.54,445.26,730.1"/>
</g>
</svg>
